<?xml version="1.0" encoding="UTF-8"?>
<svg version="1.1" xmlns="http://www.w3.org/2000/svg" width="550" height="550">
<path d="M0 0 C1.09402634 -0.00570007 2.18805267 -0.01140015 3.31523132 -0.01727295 C5.62559049 -0.02667981 7.93596281 -0.03323967 10.24633789 -0.03710938 C13.71330449 -0.04674051 17.17965836 -0.07777536 20.64648438 -0.109375 C38.41983826 -0.19506941 55.24057637 1.45953482 72.44921875 6.015625 C73.44993408 6.27569336 74.45064941 6.53576172 75.48168945 6.80371094 C78.47460395 7.59018407 81.46193469 8.39557348 84.44921875 9.203125 C85.77252197 9.54899658 85.77252197 9.54899658 87.12255859 9.90185547 C99.9172399 13.26604797 111.44466248 18.18400062 123.24926758 24.12939453 C125.20129102 25.08211888 127.15972091 25.9441786 129.16796875 26.76953125 C132.54817678 28.24636023 135.52284064 29.97981821 138.63671875 31.953125 C142.95391432 34.67531304 147.30824016 37.2682946 151.76171875 39.765625 C156.1481499 42.29692519 159.87796857 45.0288012 163.53515625 48.52734375 C165.52945846 50.34984917 165.52945846 50.34984917 168.33984375 52.109375 C171.4509372 54.20428215 174.08174497 56.46214868 176.82421875 59.015625 C180.03512687 61.98354547 183.25256634 64.92229053 186.57421875 67.765625 C194.7334228 74.89454259 201.71817073 82.72921633 208.44921875 91.203125 C209.12984375 92.03972656 209.81046875 92.87632813 210.51171875 93.73828125 C216.6130384 101.25768105 222.63615274 108.84515698 227.37792969 117.30883789 C228.51645356 119.32201171 229.69621719 121.30621188 230.88671875 123.2890625 C231.30695313 123.99289063 231.7271875 124.69671875 232.16015625 125.421875 C233.01609293 126.85362363 233.87544524 128.2833361 234.73828125 129.7109375 C237.31962749 134.05013303 239.51993854 138.41936363 241.51074219 143.05859375 C242.35461654 144.98694764 243.29114818 146.87411594 244.23828125 148.75390625 C249.43342342 159.21186138 252.65727633 170.11476638 255.76171875 181.328125 C256.08055023 182.47059189 256.08055023 182.47059189 256.40582275 183.63613892 C261.16179013 200.78762569 264.55724885 217.72403935 264.6875 235.578125 C264.69557175 236.66029297 264.70364349 237.74246094 264.71195984 238.85742188 C264.72573626 241.14679396 264.73648695 243.43618603 264.74438477 245.72558594 C264.75579828 248.01536287 264.77607667 250.30511551 264.8059082 252.59472656 C265.07976646 273.6894618 263.13914354 294.20457862 256.94921875 314.453125 C256.64371094 315.49267334 256.33820313 316.53222168 256.0234375 317.60327148 C255.43245743 319.60647388 254.83528562 321.60786535 254.23046875 323.60693359 C253.58108368 325.76492136 252.95788519 327.92625091 252.35546875 330.09765625 C247.46931334 347.17813918 239.10103645 364.04199918 229.74609375 379.10546875 C228.58361605 380.98574142 227.5080276 382.8884219 226.44921875 384.828125 C224.05402238 388.87001887 221.32000146 392.49090597 218.44921875 396.203125 C217.72734375 397.1621875 217.00546875 398.12125 216.26171875 399.109375 C203.62420294 415.85330719 190.0112386 431.24058413 173.44921875 444.203125 C172.26381151 445.14388721 171.07894258 446.085328 169.89453125 447.02734375 C168.66321304 448.00317557 167.43144733 448.978443 166.19921875 449.953125 C165.63283691 450.40115479 165.06645508 450.84918457 164.48291016 451.31079102 C158.37150164 456.1077744 152.23279957 460.40827429 145.44921875 464.203125 C143.78726556 465.23298462 142.12535839 466.2629298 140.46655273 467.29785156 C112.80112736 484.40386676 80.51715319 494.45971575 48.44921875 499.203125 C47.27488281 499.3781958 46.10054688 499.5532666 44.890625 499.73364258 C39.60081153 500.38068166 34.31932665 500.38435821 28.99609375 500.40625 C27.90065247 500.41195007 26.80521118 500.41765015 25.67657471 500.42352295 C23.36023919 500.43293911 21.04389049 500.43949342 18.72753906 500.44335938 C15.25170164 500.45297974 11.77647808 500.4840008 8.30078125 500.515625 C-9.49140778 500.60124693 -26.32361768 498.94903127 -43.55078125 494.390625 C-44.54787109 494.13273193 -45.54496094 493.87483887 -46.57226562 493.60913086 C-49.5700058 492.82420128 -52.5612523 492.01872468 -55.55078125 491.203125 C-56.91396484 490.8333252 -56.91396484 490.8333252 -58.3046875 490.45605469 C-69.85355599 487.27969064 -80.73177816 483.34120464 -91.55078125 478.203125 C-92.33582031 477.83316406 -93.12085938 477.46320313 -93.9296875 477.08203125 C-101.98674262 473.1593034 -109.79429788 468.68464873 -117.55078125 464.203125 C-117.55078125 463.543125 -117.55078125 462.883125 -117.55078125 462.203125 C-118.55496094 461.98914063 -119.55914062 461.77515625 -120.59375 461.5546875 C-125.1719895 460.2407017 -128.27930487 457.62092983 -131.86328125 454.578125 C-133.18868389 453.48292987 -134.51420481 452.38787785 -135.83984375 451.29296875 C-136.79552246 450.49415283 -136.79552246 450.49415283 -137.77050781 449.67919922 C-140.05576609 447.78442802 -142.39574735 445.96385932 -144.73828125 444.140625 C-161.47515496 430.72895799 -175.72434439 415.19934785 -188.4765625 397.99609375 C-189.75130314 396.27963507 -191.03783077 394.57176451 -192.34375 392.87890625 C-193.12685547 391.86376953 -193.12685547 391.86376953 -193.92578125 390.828125 C-194.36664063 390.26351563 -194.8075 389.69890625 -195.26171875 389.1171875 C-196.55078125 387.203125 -196.55078125 387.203125 -197.90625 384.4609375 C-199.49160407 381.32035485 -201.25904403 378.44500546 -203.16650391 375.49658203 C-206.84670559 369.80702013 -210.2674289 364.34453725 -212.51953125 357.921875 C-213.55623774 355.05591218 -213.55623774 355.05591218 -215.20703125 351.859375 C-220.43167316 341.30621097 -223.73306108 330.38937208 -226.86328125 319.078125 C-227.07583557 318.31638977 -227.28838989 317.55465454 -227.50738525 316.76983643 C-232.28171709 299.55235309 -235.67982239 282.57668725 -235.75390625 264.65234375 C-235.75960632 263.55831741 -235.7653064 262.46429108 -235.7711792 261.33711243 C-235.78058606 259.02675326 -235.78714592 256.71638094 -235.79101562 254.40600586 C-235.80064676 250.93903926 -235.83168161 247.47268539 -235.86328125 244.00585938 C-235.94897566 226.23250549 -234.29437143 209.41176738 -229.73828125 192.203125 C-229.47821289 191.20240967 -229.21814453 190.20169434 -228.95019531 189.1706543 C-228.16372218 186.1777398 -227.35833277 183.19040906 -226.55078125 180.203125 C-226.3202002 179.32092285 -226.08961914 178.4387207 -225.85205078 177.52978516 C-222.48785828 164.73510385 -217.56990563 153.20768127 -211.62451172 141.40307617 C-210.67178737 139.45105273 -209.80972765 137.49262284 -208.984375 135.484375 C-207.50754602 132.10416697 -205.77408804 129.12950311 -203.80078125 126.015625 C-201.07859321 121.69842943 -198.48561165 117.34410359 -195.98828125 112.890625 C-193.42383127 108.44089444 -190.60130339 104.75638597 -187.109375 101.0078125 C-185.58935847 99.24779336 -184.51876304 97.56112505 -183.42578125 95.515625 C-181.46540435 92.05229247 -179.38605167 89.97763963 -176.55078125 87.203125 C-174.65327787 85.18202026 -172.7930787 83.12712378 -170.92578125 81.078125 C-155.49629342 64.29601333 -155.49629342 64.29601333 -146.5234375 57.73828125 C-144.47738665 56.214458 -144.47738665 56.214458 -142.59375 54.22265625 C-140.46272433 52.1160783 -138.27841931 50.50881578 -135.80078125 48.828125 C-131.94578879 46.18632134 -128.20617041 43.45382974 -124.53515625 40.5625 C-122.55078125 39.203125 -122.55078125 39.203125 -119.80078125 37.83984375 C-116.66125642 36.25876093 -113.79020715 34.49327425 -110.84423828 32.58740234 C-105.15467638 28.90720066 -99.6921935 25.48647735 -93.26953125 23.234375 C-90.40356843 22.19766851 -90.40356843 22.19766851 -87.20703125 20.546875 C-76.65386722 15.32223309 -65.73702833 12.02084517 -54.42578125 8.890625 C-53.66404602 8.67807068 -52.90231079 8.46551636 -52.11749268 8.246521 C-34.90000934 3.47218916 -17.9243435 0.07408386 0 0 Z " fill="#092E20" transform="translate(260.55078125,24.796875)"/>
<path d="M0 0 C17.82 0 35.64 0 54 0 C54 82.17 54 164.34 54 249 C22.22060842 255.35587832 -11.55163182 261.23102722 -44 255 C-45.60101563 254.70802734 -45.60101563 254.70802734 -47.234375 254.41015625 C-70.69524969 249.5749272 -90.97237092 238.74786909 -104.5 218.3359375 C-107.17304568 213.98576555 -108.73536196 209.56111398 -110.1875 204.6875 C-110.5577832 203.52057617 -110.5577832 203.52057617 -110.93554688 202.33007812 C-114.3749505 191.1497234 -115.40507817 180.4314131 -115.375 168.75 C-115.37545319 168.06434967 -115.37590637 167.37869934 -115.37637329 166.67227173 C-115.35658121 156.48559903 -114.55831802 147.62452806 -111 138 C-110.57886467 136.29276278 -110.16189301 134.58449058 -109.75 132.875 C-105.18092736 118.06236126 -93.41685108 104.82643631 -81 96 C-80.1234375 95.3709375 -79.246875 94.741875 -78.34375 94.09375 C-71.85661065 89.69442561 -65.46688449 87.24426022 -58 85 C-56.59889507 84.47211892 -55.20227979 83.93201491 -53.8125 83.375 C-44.63579026 79.95971565 -35.84228017 79.6855855 -26.17919922 79.73925781 C-23.87310694 79.75000883 -21.56778786 79.73930051 -19.26171875 79.7265625 C-17.77603997 79.72788373 -16.29036167 79.73044536 -14.8046875 79.734375 C-13.78566849 79.72830231 -13.78566849 79.72830231 -12.74606323 79.72210693 C-7.92850785 79.76875127 -4.87021848 80.608509 0 82 C0 54.94 0 27.88 0 0 Z " fill="#FDFDFD" transform="translate(241,124)"/>
<path d="M0 0 C17.82 0 35.64 0 54 0 C54.06813046 18.96088122 54.12321973 37.92166094 54.15543652 56.88263416 C54.17080328 65.68962345 54.19169365 74.49653042 54.22631836 83.3034668 C54.2565373 90.99354529 54.27564867 98.68356408 54.28226548 106.37370032 C54.28612373 110.43290757 54.29496829 114.49194427 54.31719017 118.55109596 C54.44737264 143.32546914 54.11592735 168.0488299 47 192 C46.76539063 192.92296875 46.53078125 193.8459375 46.2890625 194.796875 C41.02700604 214.73078299 26.33086571 229.61836306 9.20947266 240.09570312 C-0.72975483 245.87372269 -0.72975483 245.87372269 -7 245 C-10.70648106 243.50293211 -14.21486801 241.6732215 -17.75 239.8125 C-18.6884375 239.32974609 -19.626875 238.84699219 -20.59375 238.34960938 C-22.47452118 237.38194741 -24.35336331 236.41052659 -26.23022461 235.43530273 C-35.16768558 230.76170948 -35.16768558 230.76170948 -44.4375 226.8125 C-47.32310573 225.72402914 -49.39933524 224.73377651 -52 223 C-52 222.34 -52 221.68 -52 221 C-48.59868654 218.98697775 -45.44355605 217.17059848 -41.75 215.75 C-36.25102006 213.47626448 -31.67297867 209.61124546 -27 206 C-26.28457031 205.47664062 -25.56914062 204.95328125 -24.83203125 204.4140625 C-8.38106711 191.47657772 -4.65620053 170.32443546 -2.30171871 150.74877453 C-1.2183462 140.87883058 -0.84166336 131.0554236 -0.79467773 121.1315918 C-0.78477814 119.81296143 -0.77487854 118.49433105 -0.76467896 117.13574219 C-0.73796767 113.56433032 -0.71677836 109.99290569 -0.69667697 106.42145133 C-0.6746055 102.67253106 -0.64732171 98.92364855 -0.62062073 95.17475891 C-0.57097674 88.09556079 -0.52593461 81.01634138 -0.48259836 73.93710214 C-0.432982 65.86921457 -0.37815545 57.80136493 -0.32291877 49.73351419 C-0.20953385 33.15571004 -0.10328995 16.57787059 0 0 Z " fill="#FCFDFC" transform="translate(327,207)"/>
<path d="M0 0 C0 28.38 0 56.76 0 86 C-16.07086705 87.78565189 -33.55007673 88.56787116 -47.4375 78.8125 C-54.834659 72.18692674 -59.5167532 60.41348126 -60.14892578 50.71533203 C-60.88373528 35.45146575 -60.44121263 20.97685509 -49.87890625 8.86328125 C-37.6306616 -3.2831069 -15.91343031 -7.95671516 0 0 Z " fill="#0A2F21" transform="translate(241,250)"/>
<path d="M0 0 C17.82 0 35.64 0 54 0 C54 18.15 54 36.3 54 55 C36.18 55 18.36 55 0 55 C0 36.85 0 18.7 0 0 Z " fill="#FDFDFD" transform="translate(327,125)"/>
<path d="M0 0 C0.66 0.33 1.32 0.66 2 1 C-1.63 4.63 -5.26 8.26 -9 12 C-9.66 11.67 -10.32 11.34 -11 11 C-9.92173635 9.72486237 -8.83714481 8.45507431 -7.75 7.1875 C-7.14671875 6.47980469 -6.5434375 5.77210938 -5.921875 5.04296875 C-4.07629602 3.08110329 -2.20054668 1.54330375 0 0 Z " fill="#D9DFDD" transform="translate(155,224)"/>
<path d="M0 0 C0.66 0.33 1.32 0.66 2 1 C-1.3 4.3 -4.6 7.6 -8 11 C-8.66 10.67 -9.32 10.34 -10 10 C-3.84965831 2.51708428 -3.84965831 2.51708428 0 0 Z " fill="#355348" transform="translate(198,253)"/>
</svg>
